<?xml version="1.0" encoding="UTF-8"?>
<svg xmlns="http://www.w3.org/2000/svg" xmlns:xlink="http://www.w3.org/1999/xlink" width="32px" height="32px" viewBox="0 0 32 32" version="1.1">
<g id="surface1">
<path style="fill-rule:nonzero;fill:#4F4F4F;fill-opacity:1;stroke-width:1;stroke-linecap:butt;stroke-linejoin:miter;stroke:#4F4F4F;stroke-opacity:1;stroke-miterlimit:4;" d="M 18.800781 16 L 24.300781 10.5 C 25.101562 9.699219 25.101562 8.5 24.300781 7.699219 C 24 7.300781 23.5 7 23 7 C 22.5 7 22 7.199219 21.601562 7.601562 L 16 13.199219 L 10.5 7.699219 C 9.699219 6.898438 8.398438 6.898438 7.699219 7.699219 C 7.300781 8 7 8.5 7 9.101562 C 7 9.699219 7.199219 10.101562 7.601562 10.5 L 13.101562 16 L 7.601562 21.5 C 7.300781 21.898438 7 22.398438 7 23 C 7 23.5 7.199219 24 7.601562 24.398438 C 8 24.800781 8.5 25 9 25 C 9.5 25 10 24.800781 10.398438 24.398438 L 15.898438 18.898438 L 21.398438 24.398438 C 22.199219 25.199219 23.5 25.199219 24.199219 24.398438 C 25 23.601562 25 22.300781 24.199219 21.601562 Z M 18.800781 16 "/>
</g>
</svg>
