<?xml version="1.0" encoding="UTF-8"?>
<svg xmlns="http://www.w3.org/2000/svg" xmlns:xlink="http://www.w3.org/1999/xlink" width="50px" height="50px" viewBox="0 0 50 50" version="1.1">
<g id="surface1">
<path style=" stroke:none;fill-rule:nonzero;fill:rgb(100%,100%,100%);fill-opacity:1;" d="M 25 0 C 11.191406 0 0 11.191406 0 25 C 0 38.804688 11.191406 50 25 50 C 38.804688 50 50 38.804688 50 25 C 50 11.191406 38.804688 0 25 0 Z M 25.074219 36.792969 L 14.246094 36.792969 C 14.246094 28.984375 21.101562 28.984375 22.625 26.945312 L 22.800781 26.011719 C 20.660156 24.929688 19.152344 22.316406 19.152344 19.261719 C 19.152344 15.234375 21.769531 11.972656 25 11.972656 C 28.230469 11.972656 30.847656 15.234375 30.847656 19.261719 C 30.847656 22.289062 29.363281 24.886719 27.253906 25.988281 L 27.453125 27.046875 C 29.125 28.988281 35.753906 29.117188 35.753906 36.792969 Z M 25.074219 36.792969 "/>
</g>
</svg>
