<?xml version="1.0" standalone="no"?>
<!DOCTYPE svg PUBLIC "-//W3C//DTD SVG 20010904//EN"
 "http://www.w3.org/TR/2001/REC-SVG-20010904/DTD/svg10.dtd">
<svg version="1.0" xmlns="http://www.w3.org/2000/svg"
 width="1280.000000pt" height="1032.000000pt" viewBox="0 0 1280.000000 1032.000000"
 preserveAspectRatio="xMidYMid meet">
<metadata>
Created by potrace 1.15, written by Peter Selinger 2001-2017
</metadata>
<g transform="translate(0.000000,1032.000000) scale(0.100000,-0.100000)"
fill="#000000" stroke="none">
<path d="M3455 9714 c-381 -29 -820 -199 -1173 -452 -432 -308 -782 -735 -971
-1182 -73 -174 -145 -412 -164 -550 -3 -19 -11 -71 -18 -115 -17 -106 -17
-544 0 -650 7 -44 14 -93 17 -110 53 -338 203 -742 429 -1150 312 -566 777
-1187 1415 -1895 516 -573 1435 -1491 2210 -2210 92 -85 247 -229 345 -320 97
-91 217 -201 265 -245 48 -44 167 -154 265 -245 245 -227 316 -290 325 -290
15 0 92 69 534 480 98 91 218 201 266 245 191 176 505 467 675 629 1559 1478
2464 2473 3054 3361 424 637 646 1144 738 1685 25 151 25 629 0 779 -76 444
-244 830 -516 1181 -457 592 -1150 999 -1791 1052 -649 54 -1261 -198 -2020
-831 -175 -146 -383 -336 -687 -629 -269 -258 -261 -254 -303 -172 -11 22 -27
40 -34 40 -15 0 -20 4 -275 243 -317 296 -483 442 -745 657 -155 127 -239 187
-416 293 -355 212 -655 333 -955 383 -89 14 -374 25 -470 18z"/>
</g>
</svg>
