<svg width="25" height="22" viewBox="0 0 25 22" fill="black" xmlns="http://www.w3.org/2000/svg">
<path d="M12.5 22C12.3681 22.0001 12.2375 21.975 12.1156 21.9262C11.9938 21.8773 11.8831 21.8057 11.7899 21.7153L2.20251 12.4391C-0.734172 9.59769 -0.734172 4.97415 2.20251 2.13279C5.0227 -0.597802 9.54323 -0.707609 12.5 1.81017C15.4548 -0.704694 19.9753 -0.598774 22.7975 2.13279C25.7342 4.97415 25.7342 9.59866 22.7975 12.4391L13.2101 21.7153C13.1169 21.8057 13.0062 21.8773 12.8844 21.9262C12.7625 21.975 12.6319 22.0001 12.5 22ZM7.52953 1.9433C6.80406 1.94207 6.08548 2.07947 5.41504 2.34761C4.74459 2.61576 4.13548 3.00937 3.62265 3.50585C2.58801 4.50878 2.00691 5.86792 2.00691 7.28495C2.00691 8.70198 2.58801 10.0611 3.62265 11.064L12.5 19.6532L21.3773 11.064C22.412 10.0611 22.9931 8.70198 22.9931 7.28495C22.9931 5.86792 22.412 4.50878 21.3773 3.50585C20.3408 2.50479 18.936 1.94256 17.4715 1.94256C16.0069 1.94256 14.6022 2.50479 13.5656 3.50585L13.2101 3.84985C13.1169 3.94017 13.0062 4.01182 12.8844 4.06071C12.7625 4.1096 12.6319 4.13476 12.5 4.13476C12.3681 4.13476 12.2375 4.1096 12.1156 4.06071C11.9938 4.01182 11.8831 3.94017 11.7899 3.84985L11.4344 3.50585C10.922 3.00938 10.3132 2.61577 9.6431 2.34761C8.97298 2.07946 8.2547 1.94206 7.52953 1.9433Z" fill="black"/>
</svg>
