<?xml version="1.0" encoding="UTF-8"?>
<svg xmlns="http://www.w3.org/2000/svg" xmlns:xlink="http://www.w3.org/1999/xlink" width="25px" height="20px" viewBox="0 0 25 20" version="1.1">
<g id="surface1">
<path style=" stroke:none;fill-rule:nonzero;fill:rgb(0%,0%,0%);fill-opacity:1;" d="M 6.75 1.175781 C 6.003906 1.230469 5.148438 1.558594 4.457031 2.050781 C 3.613281 2.648438 2.929688 3.476562 2.5625 4.339844 C 2.417969 4.679688 2.277344 5.140625 2.242188 5.40625 C 2.234375 5.445312 2.21875 5.542969 2.203125 5.628906 C 2.171875 5.835938 2.171875 6.683594 2.203125 6.890625 C 2.21875 6.976562 2.234375 7.070312 2.238281 7.101562 C 2.34375 7.757812 2.632812 8.539062 3.078125 9.332031 C 3.6875 10.429688 4.59375 11.632812 5.839844 13.003906 C 6.847656 14.113281 8.640625 15.894531 10.15625 17.285156 C 10.335938 17.453125 10.640625 17.730469 10.828125 17.90625 C 11.019531 18.082031 11.253906 18.296875 11.347656 18.382812 C 11.441406 18.46875 11.671875 18.679688 11.867188 18.855469 C 12.34375 19.296875 12.484375 19.417969 12.5 19.417969 C 12.53125 19.417969 12.679688 19.285156 13.542969 18.488281 C 13.734375 18.3125 13.96875 18.097656 14.0625 18.011719 C 14.4375 17.671875 15.046875 17.109375 15.382812 16.792969 C 18.425781 13.929688 20.195312 12 21.34375 10.28125 C 22.171875 9.046875 22.609375 8.0625 22.789062 7.015625 C 22.835938 6.722656 22.835938 5.796875 22.789062 5.503906 C 22.640625 4.644531 22.3125 3.898438 21.78125 3.21875 C 20.886719 2.070312 19.53125 1.28125 18.28125 1.179688 C 17.015625 1.074219 15.820312 1.5625 14.335938 2.789062 C 13.992188 3.070312 13.585938 3.441406 12.992188 4.007812 C 12.46875 4.507812 12.484375 4.5 12.402344 4.339844 C 12.382812 4.296875 12.351562 4.261719 12.335938 4.261719 C 12.304688 4.261719 12.296875 4.253906 11.796875 3.792969 C 11.179688 3.21875 10.855469 2.9375 10.34375 2.519531 C 10.039062 2.273438 9.875 2.15625 9.53125 1.953125 C 8.835938 1.539062 8.25 1.304688 7.664062 1.210938 C 7.492188 1.183594 6.9375 1.160156 6.75 1.175781 Z M 6.75 1.175781 "/>
</g>
</svg>
