<?xml version="1.0" encoding="UTF-8"?>
<svg xmlns="http://www.w3.org/2000/svg" xmlns:xlink="http://www.w3.org/1999/xlink" width="34px" height="34px" viewBox="0 0 34 34" version="1.1">
<g id="surface1">
<path style=" stroke:none;fill-rule:nonzero;fill:rgb(0%,0%,0%);fill-opacity:1;" d="M 24.683594 15.804688 L 12.996094 8.699219 C 11.945312 8.113281 10.625 8.867188 10.625 10.09375 L 10.625 23.90625 C 10.625 25.128906 11.941406 25.886719 12.996094 25.300781 L 24.683594 18.59375 C 25.773438 17.988281 25.773438 16.414062 24.683594 15.804688 Z M 33.46875 17 C 33.46875 7.902344 26.097656 0.53125 17 0.53125 C 7.902344 0.53125 0.53125 7.902344 0.53125 17 C 0.53125 26.097656 7.902344 33.46875 17 33.46875 C 26.097656 33.46875 33.46875 26.097656 33.46875 17 Z M 3.71875 17 C 3.71875 9.664062 9.664062 3.71875 17 3.71875 C 24.335938 3.71875 30.28125 9.664062 30.28125 17 C 30.28125 24.335938 24.335938 30.28125 17 30.28125 C 9.664062 30.28125 3.71875 24.335938 3.71875 17 Z M 3.71875 17 "/>
</g>
</svg>
