<svg width="34" height="34" viewBox="0 0 34 34" fill="none" xmlns="http://www.w3.org/2000/svg">
<path d="M13.6 8.5C13.1491 8.5 12.7167 8.6791 12.3979 8.99792C12.0791 9.31673 11.9 9.74913 11.9 10.2L11.9 23.8C11.9 24.2509 12.0791 24.6833 12.3979 25.0021C12.7167 25.3209 13.1491 25.5 13.6 25.5C14.0509 25.5 14.4833 25.3209 14.8021 25.0021C15.1209 24.6833 15.3 24.2509 15.3 23.8L15.3 10.2C15.3 9.74913 15.1209 9.31673 14.8021 8.99792C14.4833 8.6791 14.0509 8.5 13.6 8.5ZM17 -4.7877e-09C13.6377 -3.84078e-09 10.3509 0.997032 7.55531 2.86502C4.75968 4.733 2.58074 7.38804 1.29406 10.4944C0.00736583 13.6007 -0.329291 17.0189 0.326658 20.3165C0.982606 23.6142 2.6017 26.6433 4.97919 29.0208C7.35668 31.3983 10.3858 33.0174 13.6835 33.6733C16.9811 34.3293 20.3993 33.9926 23.5056 32.7059C26.612 31.4193 29.267 29.2403 31.135 26.4447C33.003 23.6491 34 20.3623 34 17C34 14.7675 33.5603 12.5569 32.706 10.4944C31.8516 8.43184 30.5994 6.55778 29.0208 4.97918C27.4422 3.40059 25.5682 2.14838 23.5056 1.29405C21.4431 0.439718 19.2325 -5.41643e-09 17 -4.7877e-09ZM17 30.6C14.3102 30.6 11.6808 29.8024 9.44425 28.308C7.20774 26.8136 5.4646 24.6896 4.43525 22.2045C3.40589 19.7194 3.13657 16.9849 3.66133 14.3468C4.18609 11.7086 5.48136 9.28534 7.38335 7.38335C9.28535 5.48135 11.7086 4.18608 14.3468 3.66132C16.9849 3.13656 19.7194 3.40589 22.2045 4.43524C24.6896 5.46459 26.8136 7.20773 28.308 9.44424C29.8024 11.6807 30.6 14.3102 30.6 17C30.6 20.6069 29.1672 24.0662 26.6167 26.6166C24.0662 29.1671 20.6069 30.6 17 30.6ZM20.4 8.5C19.9491 8.5 19.5167 8.6791 19.1979 8.99792C18.8791 9.31673 18.7 9.74913 18.7 10.2L18.7 23.8C18.7 24.2509 18.8791 24.6833 19.1979 25.0021C19.5167 25.3209 19.9491 25.5 20.4 25.5C20.8509 25.5 21.2833 25.3209 21.6021 25.0021C21.9209 24.6833 22.1 24.2509 22.1 23.8L22.1 10.2C22.1 9.74913 21.9209 9.31673 21.6021 8.99792C21.2833 8.6791 20.8509 8.5 20.4 8.5Z" fill="black"/>
</svg>
