<?xml version="1.0" encoding="UTF-8"?>
<svg xmlns="http://www.w3.org/2000/svg" xmlns:xlink="http://www.w3.org/1999/xlink" width="27px" height="27px" viewBox="0 0 27 27" version="1.1">
<g id="surface1">
<path style=" stroke:none;fill-rule:evenodd;fill:rgb(0%,0%,0%);fill-opacity:1;" d="M 11.871094 4.261719 C 12.230469 4.433594 12.457031 4.796875 12.460938 5.195312 L 12.460938 21.8125 C 12.460938 22.386719 11.996094 22.851562 11.421875 22.851562 L 10.773438 22.625 L 5.871094 18.699219 L 1.039062 18.699219 C 0.464844 18.695312 0 18.226562 0 17.65625 L 0 9.34375 C 0 8.769531 0.464844 8.304688 1.039062 8.304688 L 5.871094 8.304688 L 10.773438 4.382812 C 11.085938 4.132812 11.511719 4.085938 11.871094 4.261719 Z M 10.382812 7.351562 L 6.875 10.15625 L 6.226562 10.382812 L 2.078125 10.382812 L 2.078125 16.609375 L 6.234375 16.609375 L 6.882812 16.839844 L 10.390625 19.644531 L 10.390625 7.351562 Z M 26.695312 8.613281 C 27.101562 9.015625 27.101562 9.675781 26.699219 10.078125 L 26.695312 10.082031 L 18.386719 18.386719 C 17.984375 18.792969 17.324219 18.792969 16.917969 18.386719 C 16.511719 17.984375 16.511719 17.324219 16.917969 16.917969 L 25.222656 8.613281 C 25.628906 8.207031 26.289062 8.207031 26.695312 8.613281 Z M 26.695312 8.613281 "/>
<path style=" stroke:none;fill-rule:evenodd;fill:rgb(0%,0%,0%);fill-opacity:1;" d="M 16.917969 8.613281 C 16.511719 9.015625 16.511719 9.675781 16.917969 10.078125 L 16.917969 10.082031 L 25.222656 18.386719 C 25.628906 18.792969 26.289062 18.792969 26.695312 18.386719 C 27.101562 17.984375 27.101562 17.324219 26.695312 16.917969 L 18.386719 8.613281 C 17.984375 8.207031 17.324219 8.207031 16.917969 8.613281 Z M 16.917969 8.613281 "/>
</g>
</svg>
